<?xml version="1.0" standalone="no"?>
<!DOCTYPE svg PUBLIC "-//W3C//DTD SVG 20010904//EN"
 "http://www.w3.org/TR/2001/REC-SVG-20010904/DTD/svg10.dtd">
<svg version="1.0" xmlns="http://www.w3.org/2000/svg"
 width="512.000000pt" height="512.000000pt" viewBox="0 0 512.000000 512.000000"
 preserveAspectRatio="xMidYMid meet">

<g transform="translate(0.000000,512.000000) scale(0.100000,-0.100000)"
fill="#000000" stroke="none">
<path d="M2310 4229 c-613 -79 -1271 -463 -1883 -1099 -161 -167 -360 -407
-400 -481 -35 -66 -35 -112 0 -178 80 -149 541 -645 793 -853 491 -404 929
-625 1415 -714 142 -26 508 -26 650 0 477 87 920 308 1390 694 221 181 512
478 708 721 180 225 181 254 8 471 -132 164 -269 316 -427 470 -570 556 -1194
899 -1764 970 -98 12 -395 11 -490 -1z m495 -374 c504 -81 1017 -380 1530
-890 131 -131 365 -390 365 -405 0 -16 -207 -247 -340 -380 -228 -229 -422
-390 -655 -543 -309 -203 -609 -327 -899 -372 -151 -24 -437 -16 -581 15 -537
116 -1120 500 -1634 1075 -164 183 -177 201 -160 223 150 195 486 530 719 717
231 185 552 373 782 459 110 41 263 82 376 101 108 18 386 18 497 0z"/>
<path d="M2345 3620 c-440 -93 -761 -420 -855 -870 -16 -77 -13 -292 5 -387
53 -279 209 -523 440 -688 129 -92 304 -162 464 -185 125 -19 334 -8 441 23
362 103 634 363 750 717 80 244 63 539 -45 775 -113 250 -343 467 -595 564
-181 70 -418 90 -605 51z"/>
</g>
</svg>
